<svg width="24" height="24" viewBox="0 0 24 24" fill="none" xmlns="http://www.w3.org/2000/svg">
<path d="M15.5009 1.49939C15.8859 1.30644 16.3516 1.38159 16.6562 1.68591L22.3134 7.34314C22.6176 7.64748 22.6933 8.11256 22.5009 8.49744C22.3083 8.88231 21.8908 9.10037 21.4648 9.03943L19.6718 8.78162L16.7148 14.1039C17.067 14.9247 17.2868 15.7555 17.2499 16.5873C17.2038 17.6246 16.7665 18.5461 15.955 19.3578C15.7676 19.5452 15.5131 19.6507 15.248 19.6508C14.9828 19.6508 14.7285 19.5453 14.541 19.3578H14.54L14.4453 19.2631C14.3836 19.2014 14.2939 19.1107 14.1806 18.9974C13.9535 18.7703 13.6318 18.4496 13.2558 18.0736L11.2597 16.0775L3.81635 21.5814C3.41869 21.8754 2.86571 21.8349 2.51556 21.4857C2.16557 21.1364 2.12299 20.5833 2.41595 20.1849L7.90424 12.722L5.91693 10.7347C5.54307 10.3609 5.22441 10.0412 4.99896 9.8158C4.88636 9.7032 4.79644 9.61425 4.73529 9.5531L4.64154 9.45935C4.25119 9.06882 4.25108 8.43478 4.64154 8.04431C5.45712 7.22895 6.40651 6.78655 7.44916 6.73376C8.28638 6.69147 9.11549 6.90478 9.914 7.27283L15.2206 4.33142L14.9599 2.5365C14.8983 2.11049 15.1162 1.69254 15.5009 1.49939Z" fill="#1F2933"/>
</svg>
