<svg width="60" height="48" viewBox="0 0 60 48" fill="none" xmlns="http://www.w3.org/2000/svg">
<path d="M59.0946 47.4688H51.5491L48.7102 41.7005L48.1126 40.5228L44.6013 33.3604L43.8791 31.9183L43.8542 31.8222L43.1819 30.5003L42.8332 29.8032L41.7375 27.5199V27.4959L41.2893 26.6066L36.4582 16.7283L35.9352 15.6467L35.3874 16.7283L29.2862 29.2264L28.9874 29.8513L28.9625 29.9234L28.6637 30.5003L27.817 32.2548L26.5718 34.8025L25.3018 37.3502H17.6816L18.7026 35.3793L19.7984 33.12L19.8482 33.072L21.1929 30.2599L35.9352 0.144287L45.1492 18.9876L47.2659 23.2898L47.988 24.78L48.0628 24.9482L48.3616 25.5491L48.3865 25.5972L48.5857 26.0057L48.9343 26.7508L49.781 28.4573L50.0301 28.938L50.3787 29.659L55.7078 40.5228L56.2806 41.7005L59.0946 47.4688Z" fill="white"/>
<path d="M48.1615 47.4447H22.7111C10.1851 47.4447 0 36.7973 0 23.7224C0 10.6474 10.1851 0 22.7111 0H32.5974L29.2107 6.92203H22.7111C14.2692 6.92203 7.12213 14.6132 7.12213 23.7224C7.12213 32.8316 14.2692 40.5227 22.7111 40.5227H44.7748L48.1615 47.4447Z" fill="white"/>
<path d="M20.2451 32.2788H27.691L26.9688 33.6728H19.5977L20.2451 32.2788Z" fill="url(#paint0_linear_56196_8059)"/>
<path d="M48.461 26.1018L44.626 33.1921L44.1777 30.8847L48.1621 24.4915L48.461 26.1018Z" fill="url(#paint1_linear_56196_8059)"/>
<path d="M57.8743 14.7334L58.0238 0.144287L45.9709 10.1428L49.4573 10.5273L39.8698 29.4427C38.9982 30.9569 37.1803 32.2788 35.1632 32.2788H20.2466L17.6816 37.3502H36.3586C40.2433 37.3502 43.7795 35.2351 45.5227 31.8943L55.3343 13.0269L57.8743 14.7334Z" fill="#159947"/>
<defs>
<linearGradient id="paint0_linear_56196_8059" x1="24.1342" y1="34.5427" x2="23.2834" y2="31.6572" gradientUnits="userSpaceOnUse">
<stop stop-color="#AF332B"/>
<stop offset="0.1114" stop-color="#B8322A"/>
<stop offset="0.4659" stop-color="#D22F27"/>
<stop offset="0.7586" stop-color="#E52D25"/>
<stop offset="0.9513" stop-color="#EE2C24"/>
</linearGradient>
<linearGradient id="paint1_linear_56196_8059" x1="47.5229" y1="32.4097" x2="45.5928" y2="25.863" gradientUnits="userSpaceOnUse">
<stop stop-color="#AF332B"/>
<stop offset="0.1114" stop-color="#B8322A"/>
<stop offset="0.4659" stop-color="#D22F27"/>
<stop offset="0.7586" stop-color="#E52D25"/>
<stop offset="0.9513" stop-color="#EE2C24"/>
</linearGradient>
</defs>
</svg>
