<svg preserveAspectRatio="none" width="100%" height="100%" overflow="visible" style="display: block;" viewBox="0 0 42 48" fill="none" xmlns="http://www.w3.org/2000/svg">
<path id="Vector" d="M41.4129 47.3245H33.8675L31.0286 41.5562L30.4309 40.3785L26.9197 33.2161L26.1975 31.774L26.1726 31.6779L25.5002 30.356L25.1516 29.659L24.0559 27.3756V27.3516L23.6076 26.4623L18.7765 16.584L18.2536 15.5025L17.7057 16.584L11.6046 29.0821L11.3058 29.707L11.2809 29.7791L10.982 30.356L10.1353 32.1105L8.89021 34.6582L7.62018 37.2059H0L1.021 35.235L2.11672 32.9758L2.16652 32.9277L3.51126 30.1156L18.2536 0L27.4675 18.8433L29.5842 23.1455L30.3064 24.6357L30.3811 24.8039L30.6799 25.4048L30.7048 25.4529L30.9041 25.8615L31.2527 26.6065L32.0994 28.313L32.3484 28.7937L32.697 29.5147L38.0262 40.3785L38.599 41.5562L41.4129 47.3245Z" fill="var(--fill-0, white)"/>
</svg>
